# xmcd
#
# Track frame offsets:
#	150
#	10186
#	22896
#	39511
#	53067
#	65777
#	79762
#	94156
#	106245
#	124264
#	142540
#	153235
#	167031
#	180906
#	192781
#	204037
#	217219
#	233616
#
# Disc length: 3313 seconds
#
# Revision: 0
# Processed by: cddbd v1.5.2PL0 Copyright (c) Steve Scherf et al.
# Submitted via: EasyCDDAExtractor 11.9.9.666
#
DISCID=dd0cef12
DTITLE=Daniel O'Donnell - All Time Favourites
DYEAR=1900
DGENRE=
TTITLE0=I Believe
TTITLE1=The Way Old Friends Do
TTITLE2=For The Good Times
TTITLE3=Roses Are Red
TTITLE4=Vaya Con Dios (With Mary Duff)
TTITLE5=Spanish Eyes
TTITLE6=Distant Drums
TTITLE7=Travelling Light
TTITLE8=I'll Take You Home Again Kathleen
TTITLE9=Danny Boy
TTITLE10=Act Naturally
TTITLE11=Forty Shades Of Green
TTITLE12=The Wedding Song
TTITLE13=Not Until The Next Time
TTITLE14=It Doesn't Matter Anymore
TTITLE15=Cryin' Time
TTITLE16=Love Me Tender
TTITLE17=Save The Last Dance For Me
EXTD=
EXTT0=
EXTT1=
EXTT2=
EXTT3=
EXTT4=
EXTT5=
EXTT6=
EXTT7=
EXTT8=
EXTT9=
EXTT10=
EXTT11=
EXTT12=
EXTT13=
EXTT14=
EXTT15=
EXTT16=
EXTT17=
PLAYORDER=
